/* XPM */
static char *_5dae71bad204b68b265a5120028435ciZ2W4HaVbwuw7SbJ[] = {
/* columns rows colors chars-per-pixel */
"100 100 68 1 ",
"  c None",
". c #1E1B1C",
"X c #211E1F",
"o c #221F20",
"O c #252223",
"+ c #282526",
"@ c #2A2728",
"# c #2D2A2B",
"$ c #302E2F",
"% c #322F30",
"& c #353233",
"* c #383636",
"= c #3A3738",
"- c #3D3A3B",
"; c #403E3F",
": c #413F40",
"> c #444244",
", c #484647",
"< c #484748",
"1 c #4C4A4C",
"2 c #514E4F",
"3 c #4F4E50",
"4 c #504F51",
"5 c #545254",
"6 c #575658",
"7 c #585759",
"8 c #5B5A5C",
"9 c #605E5E",
"0 c #5F5E60",
"q c #636365",
"w c #686667",
"e c #666668",
"r c #696768",
"t c #6B6A6C",
"y c #716F6F",
"u c #716F70",
"i c #727172",
"p c #787778",
"a c #7C7B7C",
"s c #7F7F80",
"d c #858486",
"f c #8D8C8D",
"g c #939394",
"h c #979899",
"j c #9A9A9B",
"k c #A09E9F",
"l c #A3A3A4",
"z c #A6A6A8",
"x c #ACACAD",
"c c #AEAEB0",
"v c #B0AFB0",
"b c #B3B2B4",
"n c #B7B7B8",
"m c #BABBBC",
"M c #BEBEC0",
"N c #C0BFC0",
"B c #BFC0C1",
"V c #C4C4C5",
"C c #C6C7C8",
"Z c #CACBCC",
"A c #CFCFD0",
"S c #CFD0D1",
"D c #D3D4D5",
"F c #D6D7D8",
"G c #DBDBDC",
"H c #DFDFE0",
"J c #F3F3F3",
"K c white",
/* pixels */
"                                                                                                    ",
"                                                                                                    ",
"                                                                                                    ",
"                                                                                                    ",
"                                                                                                    ",
"                                                                                                    ",
"                                                                                                    ",
"                                                                                                    ",
"                                                                                                    ",
"                                                                                                    ",
"                                                                                                    ",
"                                                                                                    ",
"                                                                                                    ",
"                                                                                                    ",
"                                                                                                    ",
"                                                                                                    ",
"                                                                                                    ",
"                                                                                                    ",
"                                                                                                    ",
"                                                                                                    ",
"                                                                                                    ",
"                                                                                                    ",
"                                                                                                    ",
"                                                                                                    ",
"                                                                                                    ",
"                             ---==           =##O@#&;          -==---                               ",
"                            =O&>>-&#$-     &+XXXOXXXO#-     &$$&->;#@                               ",
"                            =XO+#-   #@= -@oXOXOoooXXXO#  %#&   &#OOO                               ",
"                            &XooXXO&   @@OXXoooXoXoooooo++$   #OXXoXO                               ",
"                    *#      ;@ooXXOXO&  @XOXoooOOoooooooX=  #OXXoooO$      =#-                      ",
"                  $OoO        #oOXoooXO#OooXOOOO+OOOOXXXX@@OXOXXooo*       *Xo+=                    ",
"                *OoooO        =XoXoooXXXoXOOO@@@##@@@OOOXXXXXXXOoX+        *ooXX#                   ",
"               #OooooO        =ooooooooooO++@$#$####@@++oooooooooo+        *oooooO=                 ",
"              #oXooooO        #oooooooooO++#$$$%&&&%$$@@+oooooooooo*       %ooooooo*                ",
"             #oooooooO       #oooooooooO+@#$%&&***&&%%$@@+ooooooooXO=      #oooooooO=               ",
"            &OooooooXX=      Oooooooooo+@$%&&*-====-**%$#@OoooooooXX#      #XoooooooO               ",
"            Oooooooooo%      @XXoooooXO##%&&=--::----=*%$$@ooooooooO&      @XXooooooO#              ",
"           #oooooooooo#      -@XoooooO+#$&=--:::>>::;-=*%$@+ooooooo#       OooooooooXO-             ",
"           OooooooooooO       -XooooO+##&*--:>,,,,>,>;-**%$++ooooo@       =Xoooooooooo#             ",
"          &OooooooooooO=       OooooO@#%&--:>,<<<1<<,>;--%%@+oooXX#       #XooooooooooO             ",
"          #oooooooooooo#      -Ooooo+##&=-:><1133333<,>;-&%$@Ooooo@       Ooooooooooooo*            ",
"          OXoooooooooooo=      @oooO+#%*=:><114444331<>>;=&%@OOooX$      #Xoooooooooooo#            ",
"          Oooooooooooooo@      =OooO@#&*-:>13456766433<>;-&%#+ooo+      =Oooooooooooooo@            ",
"         ;Xoooooooooooooo#     =oooO@$&*-><14578707643<,:-&%#@OoX+      OXooooooooooooo@            ",
"         =oooooooooooooooo#    #ooOO#$#O+-<356880006643,&OO$$@OooO    -OOooooooooooooooO            ",
"         %ooooooooooooooooo+=  @ooo+#Oo-5#&<6700qq0775:@-6#o@@Oooo&  $OoXooooooooooXoooO            ",
"         $ooooOXOXooooooooooX@#oooo++o5cCl1#-70qeeq03%%tnBg%o@+oooO#OooooooooooXoOXXoooO            ",
"         *oXXO#-:&OooooooooXXXXoooOOX-cDHHDf-%5ett0>#6cHHHAdOOOooooXooooooooooo@=>=@oooO            ",
"         ;ooO-    -OXoXXoXooooooooooOsAGg8yCBe%0tt<-fSz0enGN1oOoooooooXooXXoXo#     $OX+            ",
"         -XO=      *O#=-=#OoooooooOX&xGhrnt4DZq,ee-gGx*kk0CDaoooooooooX@&=-&++       #X@            ",
"          O$        >     ;@XooooooX,NAtGJtOzFd;q0:nGqOxKjfGj+oooooooo$               O#            ",
"          #                 #ooooooX2ZZ>t7O.fGg-05>MF1.%y4iHz#ooooooO&                &$            ",
"          -                  +oooooX2CA;..XXhGf&03>MF5....aHl@oooooo#                  -            ",
"                             &oXooXX;nGy.;w&BFp*73=zGd=yO@xFfOoooooO                                ",
"                              @XooXXOhFC25igHB4-65$dDSup=aGZe.ooooO%                                ",
"                              @XooooX9CGAxNGSh$,33&1BFDcnHFz&oooooX=                                ",
"                              #XooooX+sZFGFSc,#111>+yVDGGDn6Xoooooo=                                ",
"                              $XoooooX$icBmh,o-,,,,&+wxMMj5oXoooooO                                 ",
"                              =XooooooXo*<>@o&>>>:>;#o&,>#XoooooooO                                 ",
"                               OooooooOoX.XO&--;::;-=#oXXXoOoooooo#                                 ",
"                               @ooooooO++@$&*==---===&$#++Oooooooo&                                 ",
"                               &oooooooO@@#%&&******&&$#@+OoooooOO                                  ",
"                                +XooooooO+@##$%&%%%%$#@@+Oooooooo#                                  ",
"                                &oooooooooOoOOOOOOOOOoOOooooooooO                                   ",
"                                 @Xoooooo@, >+OO+OOO#1 -OXXooooo&                                   ",
"                                  +XoooooO  4O+++@+O#  >Xoooooo#                                    ",
"                                   @oXoooo- &XoOOOOOO  #XoXOoX#                                     ",
"                                    #XoooX@ +oooXXXXX$ OooXXO&                                      ",
"                                     #oooooOOXoooooXOOOXoooO-                                       ",
"                                     =oooooXooXOoooOXXXoooo@                                        ",
"                                      OXoo@#@OOOOOOOO#+oooo#                                        ",
"                                      Oooo$           -oooo=                                        ",
"                                      @ooX#           &oooO                                         ",
"                                      &XoO&           &ooo#                                         ",
"                                       Ooo=           =XXO                                          ",
"                                       &XO             Oo&                                          ",
"                                        &=             **                                           ",
"                                                                                                    ",
"                                                                                                    ",
"                                                                                                    ",
"                                                                                                    ",
"                                                                                                    ",
"                                                                                                    ",
"                                                                                                    ",
"                                                                                                    ",
"                                                                                                    ",
"                                                                                                    ",
"                                                                                                    ",
"                                                                                                    ",
"                                                                                                    ",
"                                                                                                    ",
"                                                                                                    ",
"                                                                                                    ",
"                                                                                                    ",
"                                                                                                    ",
"                                                                                                    ",
"                                                                                                    ",
"                                                                                                    ",
"                                                                                                    ",
"                                                                                                    "
};
