/* XPM */
static char *_8160caa2ce2491bae98d68f1f1980f3gPZj5TnHhSesR0jV[] = {
/* columns rows colors chars-per-pixel */
"100 100 52 1 ",
"  c None",
". c #000000",
"X c #0D0100",
"o c #0C0C0C",
"O c #130200",
"+ c #190201",
"@ c #1D0907",
"# c #131313",
"$ c #191919",
"% c #240401",
"& c #2B0602",
"* c #2C0B07",
"= c #230E0C",
"- c #340702",
"; c #390701",
": c #340803",
"> c #3D0903",
", c #33100C",
"< c #222222",
"1 c #450A03",
"2 c #490902",
"3 c #540C03",
"4 c #5B0E05",
"5 c #45130D",
"6 c #640E03",
"7 c #651106",
"8 c #6E1104",
"9 c #6E1508",
"0 c #751304",
"q c #7D1204",
"w c #841404",
"e c #8C1403",
"r c #871608",
"t c #961301",
"y c #981301",
"u c #971907",
"i c #9C1805",
"p c #901708",
"a c #A21501",
"s c #AB1501",
"d c #A61A06",
"f c #AB1906",
"g c #A51C08",
"h c #AF1D08",
"j c #B41702",
"k c #B31B04",
"l c #BB1A03",
"z c #B21D08",
"x c #C31D04",
"c c #CD1D04",
"v c #D51C00",
"b c #D81D00",
/* pixels */
"                                                                                                    ",
"                                                                                                    ",
"                                                                                                    ",
"                                                                                                    ",
"          <$$$$$$$#$$#$###$###$####$#$#o###$#####################################$###$###$          ",
"          o..............................................................................o          ",
"          o..............................................................................o          ",
"          o..............................................................................o          ",
"          o..............................................................................o          ",
"          =+++++++++++++++++++++++++++++++++X.....O++++++++++++++++++++++++++++++++++++++@          ",
"    <#ooo=9qqqqqqqqqqqqqqqqqqqqqqqqqqqqqqqqq:....X7qqqqqqqqqqqqqqqqqqqqqqqqqqqqqqqqqqqqqq0,oooo$    ",
"    $....+qyyttttytttttyttytttttytttytyttttt>....O0ytttttttyyttttytttttyttytttttyttttyttte&....o    ",
"    #....+qtttttttttttttttttttttttttttttttte>....O0tttttttttttttttttttttttttttttttttttttte&....#    ",
"    $....+qttttttttttttttttttttttttttttttttt>....O0tttttttttttttttttttttttttttttttttttttte&....o    ",
"    #....+qttttttttttttttttttttttttttttttttt>....O0ttttttttttttttttttttttttttttyttttttttte&....#    ",
"    $....+esssssssasasssssssssasssssssytttte>....+wsssasasssssssssasasssssssssssssssytttte&....o    ",
"    $....%fvvvcvcvcvvcvcvcvvcvcvcvcvvvlttttt>....+dvvcvvcvcvvcvccvvcvcvvcvcvvcvcvcvvjtttte&....o    ",
"    #....%kvvvvvvvvvvvvvvvvvvvvvvvvvvvlytttt>....+dvvvvvvvvvvvvvvvvvvvvvvvvvvvvvvvvvjtttte&....#    ",
"    $....%kvvvvvvvvvvvvvvvvvvvvvvvvvvvlyttte;....+dbvvvvvvvvvvvvvvvvvvvvvvvvvvvvvvvvjtttte&....o    ",
"    #....%kvvvvvvvvvvvvvvvvvvvvvvvvvvvlytttt>....+fbvvvvvvvvvvvvvvvvvvvvvvvvvvvcvvvvjtttte&....#    ",
"    #....%kvvvvvvvvvvvvvvvvvvvvvvvvvvvltttte;....+dvvvvvvvvvvvvvvvvvvvvvvvvvvvvvvvvvjyttte&....o    ",
"    #....%kvvvvvvvvvvvvvvvvvvvvvvvvvvvxttttt>....+fbvvvvvvvvvvvvvvvvvvvvvvvvvvvvvvvvjtttte&....o    ",
"    $....%kvvvvvvvvvvvvvvvvvvvvvvvvvvvltttte>....+dbvvvvvvvvvvvvvvvvvvvvvvvvvvvvvvvvjtttte&....#    ",
"    #....%fvvvvvvvvvvvvvvvvvvvvvvvvvvvlttttt>....+dbvvvvvvvvvvvvvvvvvvvvvvvvvvvvvvvvjtttte&....o    ",
"    #....%kvvvvvvvvvvvvvvvvvvvvvvvvvvvlttttt>....+fvvvvvvvvvvvvvvvvvvvvvvvvvvvvvvvvvstttte&....o    ",
"    $....%kvvvvvvvvvvvvvvvvvvvvvvvvvvvltttte>....+svvvvvvvvvvvcvvvvvvvvvvvvvvvvvvvvvjtttte&....#    ",
"    #....%kvvvvvvvvvvvvvvvvvvvvvvvvvvvlytttt>....+svvvvvvvvvvvvvvvvvvvvvvvvvvvvvvvvvjyttte&....o    ",
"    #....%kvvvvvvvvvvvvvvvvvvvvvvvvvvvlytttt>....+svvvvvvvvvvvvvvvvvvvvvvvvvvvvvvvvvjtttte&....o    ",
"    #....%kvvvvvvvvvvvvvvvvvvvvvvvvvvvlyttte>....+gbvvvvvvvvvvvvvvvvvvvvvvvvvvvvvvvvjtttte&....o    ",
"    $....%kvvvvvvvvvvvvvvvvvvvvvvvvvvvxytttt>....+fbvvvvvvvvvvvvvvvvvvvvvvvvvvvvvvvvjtttte&....o    ",
"    #....%kvvvvvvvvvvvvvvvvvvvvvvvvvvblytttt>....+gvvvvvvvvvvvvvvvvvvvvvvvvvvvvvvvvvjyttte&....o    ",
"    #....%kvvvbbvvvvvvvvvvvvvvvvvvbvbblyyytp>....+fbvbvbbbvvvvvvbvvvvvvvvvvvbbvbvvbbjytyye&....#    ",
"    $....+pffffffkffffffdkffffffsshfffiqq000:....+rfffffffkfffffhfffffhfffffffffffkdp0q008%....o    ",
"    #.....+++++++++++++++++++++++++++++OOOOO......++++++++++++++++++++++++++++++++++++OOOO.....o    ",
"    #..........................................................................................o    ",
"    #..........................................................................................o    ",
"    #..........................................................................................o    ",
"    $..........................................................................................o    ",
"    #....X233333333332>>>>>X....O23333333333333333333333333332>>:>:O....O133333333331>>>>:O....o    ",
"    #....%hvvcccccvccfeetee&....*zccvcccccvccccccccvcccvccvccftttte:....%fcccvccccvcdttetw*....o    ",
"    #....%kvvvvvvvvvvjyttye&....&lbbvvvvvvvbvvvvvvvvvvvvvbvvvjyttte:....%zvvvvvvvvbvjyttte&....#    ",
"    #....%kvvvvvvvvvvjtttte&....-lbvvvvvvvvvvvvvvvvvvvvvvvvvvlytttt:....%hvvvvvvvvvvjtttye&....o    ",
"    $....%kvvvvvvvvvvjtttye&....&xvvvvvvvvvvvvvvvvvvvvvvvvvvvjyttte:....%fvvvvvvvvvvjyttte&....o    ",
"    #....%kvvvvvvvvvvjtttte%....&lbvvvvvvvvvvvvvvvvvvvvvvvvvvlytttt-....%zvvvvvvvvvvjtttte&....o    ",
"    #....%kvvvvvvvvvvjtttye&....&xvvvvvvvvvvvvvvvvvvvvvvvvvvvjyttte-....%kvvvvvvvvvvjtttte&....o    ",
"    #....%kvvvvvvvvvvjtttte&....&lbvvvvvvvvvvvvvvvvvvvvvvvvvvlytttt:....%kvvvvvvvvvvjtttte&....o    ",
"    $....%hvvvvvvvvvbjtttye%....:xvvvvvvvvvvvvvvvvvvvvvvvvvvvjyttte-....%fvvvvvvvvvvjtttte&....o    ",
"    #....%fvvvvvvvvvvjtttye&....&lvvvvvvvvvvvvvvvvvvvvvvvvvvvlytttt-....%kvvvvvvvvvvjtttte&....o    ",
"    #....%kvvvvvvvvvvjtttte&....&xvvvvvvvvvvvvvvvvvvvvvvvvvvvltttte:....%fvvvvvvvvvvjtttte&....o    ",
"    $....%kvvvvvvvvvvjtttte%....*lvvvvvvvvvvvvvvvvvvvvvvvvvvvjytttt:....%kbvvvvvvvvvjyttte&....o    ",
"    #....%kvvvvvvvvvvjtttye&....&lvvvvvvvvvvvvvvvvvvvvvvvvvvvjyttte-....%kvvvvvvvvvvjyttye&....o    ",
"    #....%kvvvvvvvvvvjtttte&....*xvvvvvvvvvvvvvvvvvvvvvvvvvvvlttttt-....%kvvvvvvvvvvjtttte*....o    ",
"    #....%kvvvvvvvvvvjtttte&....&lbvvvvvvvvvvvvvvvvvvvvvvvvvvjytyte-....%kvvvvvvvvvvjtttte&....o    ",
"    $....%kvvvvvvvvvvjtttte&....&xvvvvvvvvvvvvvvvvvvvvvvvvvvvlytttt:....%fbvvvvvvvvvjtttte&....o    ",
"    #....%kbvvvvbbvbvjyyyye%....&xbbbbbbbbvvvvvvvvvbvvbbvbvvvlyttyt:....%kbbbbbbbvvvjyttye&....#    ",
"    #....+wiiiiiiiiiiw88887%....%eiiiiiiiiiiiiiiyiiiiiiiiiiiie88887%....+wiiiiiiiiiiw08807+....o    ",
"    $.....OOO+OO+OOO+XXXOXX......O+OOO+O+OOO+O+O+OO++OO++OOO+OXXXXX......OO++OO+O++OXXXXXX.....o    ",
"    #..........................................................................................o    ",
"    #..........................................................................................o    ",
"    #..........................................................................................o    ",
"    #..........................................................................................o    ",
"    $....O366666776666676666776666676666676631111>O....+466766667766666766667766666731211>+....o    ",
"    #....%hcvcvcvcccvcccvcvcvcccvcccvcvcccvcfttetw+....>lcccvcvcvcccvcccvcvccvccvcvcfetttw*....o    ",
"    #....%zvvvvvvvvvvvvvvvvvvvvvvvvvvvvvvvvvfttttw%....>xbvvvvvvvvvvvvvvvvvvvvvvvvvvjtttte&....o    ",
"    #....%kvvvvvvvvvvvvvvvvvvvvvvvvvvvvvvvvvjttttw+....;xvvvvvvvvvvvvvvvvvvvvvvvvvvvjtttye&....o    ",
"    #....%kvvvvvvvvvvvvvvvvvvvvvvvvvvvvvvvvvstttyw%....;xvvvvvvvvvvvvvvvvvvvvvvvvvvvjtttte&....o    ",
"    $....%kvvvvvvvvvvvvvvvvvvvvvvvvvvvvvvvvcjtttyw%....;xvvvvvvvvvvvcvvvvvvvvvvvvvvvjyttte&....o    ",
"    #....%kvvvvvvvvvvvvvvvvvvvvvvvvvvvvvvvvvfttttw%....;xvvvvvvvvvvvvvvvvvvvvvvvvvvvjtttte&....o    ",
"    #....%kvvvvvvvvvvvvvvvvvvvvvvvvvvvvvvvvvsttttw%....;xvvvvvvvvvvvvvvvvvvvvvvvvvvvjtttte&....o    ",
"    #....%kvvvvvvvvvvvvvvvvvvvvvvvvvvvvvvvvvsttttw%....;xvvvvvvvvvvvvvvvvvvvvvvvvvvvjtttte&....o    ",
"    $....%kvvvvvvvvvvvvvvvvvvvvvvvvvvvvvvvvvjtttyw+....;xvvvvvvvvvvvvvvvvvvvvvvvvvvvjtttte&....o    ",
"    #....%kbvvbbvvvvvvvbvvvvvvvvbvbvbvbvvvvvjtttyw%....;xbbvbvvbvvbvbvvvbbvbvvbbvvvvjtyyte&....#    ",
"    #....%ukzkkkkzjzkzkkkkkkkkkkzkkkzkzjkkkkpwqww0+....&gzkkzjkkkkkkzjkkkzkzzkkkkkkkuwqww0%....o    ",
"    $.....+&&%&%&&%&%&&%%&%&&%&&&%&%&&&%%%&%%+++++.....X%%&&&%&%&%&&&%&%&%&&&%&%&%&%%+++++X....o    ",
"    #..........................................................................................#    ",
"    #..........................................................................................o    ",
"    #..........................................................................................o    ",
"    $..........................................................................................o    ",
"    #....X>1222221222>----:X....X>2122122122222222222222222221-----X....X>22222222221----&X....o    ",
"    #....%gccxcxxcxccdeeeew%....&zccxccxccxcxcxxcxcxcxcxcxcxcdeeeew:....%gcxcxcxcxcxdeeeew*....o    ",
"    $....%kbvvvvbvvbvjtttte%....&lbbbvvvvvvvvvvvvvvvvvvvvbvvvjyttye-....%kbvvvvvvvvbjyttte&....o    ",
"    #....%kvvvvvvvvvvjtttte&....:lbbvvvvvvvvvvvvvvvvvvvvvvvvvlyttye:....%kvvvvvvvvvbjyttte&....o    ",
"    #....%kvvvvvvvvvvjtttte&....:lbvvvvvvvvvvvvvvvvvvvvvvvvvvlyttyt-....%fvvvvvvvvvvjtttte&....o    ",
"    #....%kvvvvvvvvvvjtttte&....&lvvvvvvvvvvvvvvvvvvvvvvvvvvvjyttte-....%kvvvvvvvvvvjyttte&....#    ",
"    #....%kvvvvvvvvvvjtttye&....&xvvvvvvvvvvvvvvvvvvvvvvvvvvvjytttt:....%kvvvvvvvvvvjtttte&....o    ",
"    #....%kvvvvvvvvvvjtttte%....&xvvvvvvvvvvvvvvvvvvvvvvvvvvvlyttye-....%kvvvvvvvvvvjtttte&....#    ",
"    #....%kvvvvvvvvvvjtttte&....&lvvvvvvvvvvvvvvvvvvvvvvvvvvvjtttte-....%zvvvvvvvvvcjtttte&....#    ",
"    $....%kvvvvvvvvvvjtttte&....-lvvvvvvvvvvvvvvvvvvvvvvvvvvvltttye:....%kvvvvvvvvvvjtttte&....o    ",
"    $....%jvvvbvvvbvvjttyte%....&xvbvvvvvbvvvvbvvvvbvvbvbvvbvltttyt:....%fvbvvvbvbbvjtttte&....#    ",
"    $o.oo*gxxxxxxxxxxdeeeew%....%hxxxxxxxxxxxxxxxxxxxxxxxxxxxfeeeew*....%gxxxxxxxxxxdeeerq*oo.o#    ",
"          5>>>>>>1>>>:&&&&&X....X>>>>1>>>1>>>1>>>>>>>>>1>>>>>:&&&&&X....X:>>1>>>1>>>:&&&**          ",
"          o..............................................................................o          ",
"          o..............................................................................o          ",
"          o..............................................................................o          ",
"          o..............................................................................o          ",
"          $ooooooooooooooooooooo.ooooo.oo.oo.oo.oo.oo.oo.oo.oooooo.ooooo.ooooooooooooooooo          ",
"                                                                                                    ",
"                                                                                                    ",
"                                                                                                    ",
"                                                                                                    "
};
